<svg width="9" height="11" viewBox="0 0 9 11" fill="none" xmlns="http://www.w3.org/2000/svg">
<path d="M0.273156 3.50996L3.45998 0.474885C3.64209 0.292781 3.87478 0.201729 4.15805 0.201729C4.42109 0.201729 4.64366 0.292781 4.82576 0.474885L8.04294 3.50996C8.22505 3.69206 8.3161 3.91463 8.3161 4.17767C8.3161 4.42048 8.22505 4.63293 8.04294 4.81504C7.86084 4.99714 7.62815 5.08819 7.34487 5.08819C7.0616 5.08819 6.82891 4.99714 6.64681 4.81504L5.12927 3.3582V9.94431C5.12927 10.2073 5.0281 10.4299 4.82576 10.612C4.64366 10.7941 4.42109 10.8852 4.15805 10.8852C3.89501 10.8852 3.66232 10.7941 3.45998 10.612C3.27788 10.4299 3.18683 10.2073 3.18683 9.94431V3.3582L1.66929 4.84539C1.48719 5.02749 1.2545 5.11855 0.971223 5.11855C0.68795 5.11855 0.455261 5.02749 0.273156 4.84539C0.0910522 4.66328 0 4.44071 0 4.17767C0 3.91463 0.0910522 3.69206 0.273156 3.50996Z" fill="#70BF73"/>
</svg>
