<svg width="14" height="14" viewBox="0 0 14 14" fill="none" xmlns="http://www.w3.org/2000/svg">
<path d="M6.54077 0.609827C6.71432 0.206845 7.28569 0.206846 7.45923 0.609828L9.04562 4.29359C9.11801 4.46168 9.27644 4.57679 9.45867 4.59369L13.4524 4.9641C13.8892 5.00462 14.0658 5.54802 13.7362 5.8376L10.7229 8.4847C10.5854 8.60548 10.5249 8.79173 10.5652 8.97027L11.447 12.883C11.5435 13.311 11.0812 13.6468 10.704 13.4228L7.25528 11.375C7.09792 11.2816 6.90208 11.2816 6.74472 11.375L3.29604 13.4228C2.91877 13.6468 2.45652 13.311 2.55299 12.883L3.43484 8.97027C3.47507 8.79173 3.41456 8.60548 3.27706 8.48469L0.263817 5.8376C-0.0658138 5.54802 0.11075 5.00462 0.547636 4.9641L4.54133 4.59369C4.72356 4.57679 4.88199 4.46168 4.95438 4.29359L6.54077 0.609827Z" fill="#BFBFBF"/>
</svg>
