<svg width="44" height="45" viewBox="0 0 44 45" fill="none" xmlns="http://www.w3.org/2000/svg">
<g clip-path="url(#clip0_1465_318)">
<rect y="0.543457" width="44" height="44" rx="22" fill="white"/>
<g filter="url(#filter0_ii_1465_318)">
<path fill-rule="evenodd" clip-rule="evenodd" d="M22 44.5434C9.84976 44.5434 0 34.6936 0 22.5434C0 10.3932 9.84976 0.543457 22 0.543457C34.1502 0.543457 44 10.3932 44 22.5434C44 34.6936 34.1502 44.5434 22 44.5434Z" fill="#262B34"/>
</g>
<g filter="url(#filter1_d_1465_318)">
<path fill-rule="evenodd" clip-rule="evenodd" d="M25.1755 10.8336H18.4999L15.4862 22.0907L13.1252 22.9686L12.2899 25.7887L14.7319 24.908L12.964 31.5118H30.223L31.3627 27.2785H20.7794L22.1259 22.2416L25.0355 21.1923L25.7666 18.268L22.9035 19.3326L25.1755 10.8336Z" fill="white"/>
</g>
</g>
<defs>
<filter id="filter0_ii_1465_318" x="0" y="0.543457" width="44" height="43.9999" filterUnits="userSpaceOnUse" color-interpolation-filters="sRGB">
<feFlood flood-opacity="0" result="BackgroundImageFix"/>
<feBlend in="SourceGraphic" in2="BackgroundImageFix" result="shape"/>
<feColorMatrix in="SourceAlpha" values="0 0 0 0 0 0 0 0 0 0 0 0 0 0 0 0 0 0 127 0" result="hardAlpha"/>
<feOffset dy="1"/>
<feComposite in2="hardAlpha" operator="arithmetic" k2="-1" k3="1"/>
<feColorMatrix values="0 0 0 0 0.266667 0 0 0 0 0.266667 0 0 0 0 0.266667 0 0 0 1 0"/>
<feBlend in2="shape" result="effect1_innerShadow_1465_318"/>
<feColorMatrix in="SourceAlpha" values="0 0 0 0 0 0 0 0 0 0 0 0 0 0 0 0 0 0 127 0" result="hardAlpha"/>
<feOffset dy="-1"/>
<feComposite in2="hardAlpha" operator="arithmetic" k2="-1" k3="1"/>
<feColorMatrix values="0 0 0 0 0.0784314 0 0 0 0 0.0784314 0 0 0 0 0.0784314 0 0 0 1 0"/>
<feBlend in2="effect1_innerShadow_1465_318" result="effect2_innerShadow_1465_318"/>
</filter>
<filter id="filter1_d_1465_318" x="8.28992" y="10.8336" width="27.0728" height="28.6782" filterUnits="userSpaceOnUse" color-interpolation-filters="sRGB">
<feFlood flood-opacity="0" result="BackgroundImageFix"/>
<feColorMatrix in="SourceAlpha" values="0 0 0 0 0 0 0 0 0 0 0 0 0 0 0 0 0 0 127 0" result="hardAlpha"/>
<feOffset dy="4"/>
<feGaussianBlur stdDeviation="2"/>
<feColorMatrix values="0 0 0 0 0 0 0 0 0 0 0 0 0 0 0 0 0 0 0.2 0"/>
<feBlend in2="BackgroundImageFix" result="effect1_dropShadow_1465_318"/>
<feBlend in="SourceGraphic" in2="effect1_dropShadow_1465_318" result="shape"/>
</filter>
<clipPath id="clip0_1465_318">
<rect y="0.543457" width="44" height="44" rx="22" fill="white"/>
</clipPath>
</defs>
</svg>
