<svg width="24" height="24" viewBox="0 0 24 24" fill="none" xmlns="http://www.w3.org/2000/svg">
<path d="M11.87 0.0203891C6.851 0.344487 2 4.72504 2 9.73288V16.7271C2 18.4626 3.407 19.8636 5.15 19.8636H6.2C7.355 19.8636 8.3 18.9226 8.3 17.7726V13.5907C8.3 12.4407 7.355 11.4997 6.2 11.4997H4.1V9.71197C4.1 5.69734 8.258 2.20544 12.2795 2.09044C16.448 1.97543 20.9 5.2896 20.9 9.40878V11.4997H18.8C17.645 11.4997 16.7 12.4407 16.7 13.5907V17.7726C16.7 18.9226 17.645 19.8636 18.8 19.8636H20.9V20.909H14.6C14.0225 20.909 13.55 21.3795 13.55 21.9545C13.55 22.5295 14.0225 23 14.6 23H19.85C21.593 23 23 21.5991 23 19.8636V9.40878C23 4.00366 17.372 -0.335074 11.87 0.0203891Z" fill="white"/>
</svg>
