<svg width="24" height="24" viewBox="0 0 24 24" fill="none" xmlns="http://www.w3.org/2000/svg">
<path d="M21.1684 6.9716L21.1691 6.97316C21.7249 8.19328 22 9.4522 22 10.7588C22 12.0983 21.7237 13.3629 21.1708 14.563L21.1684 14.5684C20.6406 15.7323 19.8963 16.7625 18.9276 17.6631C17.9575 18.5648 16.8437 19.2699 15.5792 19.7792C14.2752 20.2863 12.9176 20.54 11.5 20.54C10.3713 20.54 9.27257 20.3751 8.20034 20.0452L7.78791 19.9183L7.41264 20.1313L4.32908 21.8814L3.84572 17.7624L3.8078 17.4391L3.58692 17.2002C2.75362 16.2986 2.11592 15.2966 1.66811 14.1906C1.22229 13.0896 1 11.948 1 10.7588C1 9.4522 1.27508 8.19328 1.83092 6.97316L1.83163 6.9716C2.35963 5.80728 3.10463 4.76846 4.07521 3.85193C5.04388 2.95212 6.15547 2.25599 7.41713 1.7623L7.419 1.76157C8.70645 1.2548 10.0643 1 11.5 1C12.9357 1 14.2936 1.2548 15.581 1.76157L15.5829 1.7623C16.8445 2.25599 17.9561 2.95212 18.9248 3.85195C19.8954 4.76847 20.6404 5.80729 21.1684 6.9716Z" stroke="white" stroke-width="2"/>
</svg>
