<svg width="24" height="24" viewBox="0 0 24 24" fill="none" xmlns="http://www.w3.org/2000/svg">
<path fill-rule="evenodd" clip-rule="evenodd" d="M21.0799 11.6545C21.0799 12.0508 21.045 12.4237 20.9984 12.7966L23.4575 14.7196C23.6789 14.8945 23.7372 15.2091 23.5973 15.4655L21.2664 19.498C21.1266 19.7544 20.8235 19.8593 20.5555 19.7544L17.6535 18.5889C17.0475 19.0435 16.3948 19.4397 15.6839 19.7311L15.241 22.8195C15.2061 23.0992 14.9613 23.309 14.67 23.309H10.0082C9.71679 23.309 9.47205 23.0992 9.43708 22.8195L8.99421 19.7311C8.28329 19.4397 7.63063 19.0551 7.0246 18.5889L4.12263 19.7544C3.86623 19.8476 3.55156 19.7544 3.4117 19.498L1.0808 15.4655C0.940948 15.2091 0.999221 14.8945 1.22066 14.7196L3.67976 12.7966C3.63314 12.4237 3.59818 12.0391 3.59818 11.6545C3.59818 11.2699 3.63314 10.8853 3.67976 10.5124L1.22066 8.58937C0.999221 8.41455 0.929294 8.09988 1.0808 7.84348L3.4117 3.81102C3.55156 3.55462 3.85457 3.44973 4.12263 3.55462L7.0246 4.72008C7.63063 4.26555 8.28329 3.8693 8.99421 3.57793L9.43708 0.489489C9.47205 0.209781 9.71679 0 10.0082 0H14.67C14.9613 0 15.2061 0.209781 15.241 0.489489L15.6839 3.57793C16.3948 3.8693 17.0475 4.2539 17.6535 4.72008L20.5555 3.55462C20.8119 3.46139 21.1266 3.55462 21.2664 3.81102L23.5973 7.84348C23.7372 8.09988 23.6789 8.41455 23.4575 8.58937L20.9984 10.5124C21.045 10.8853 21.0799 11.2583 21.0799 11.6545ZM8.26072 11.6546C8.26072 13.9039 10.0905 15.7336 12.3398 15.7336C14.5891 15.7336 16.4189 13.9039 16.4189 11.6546C16.4189 9.40525 14.5891 7.57549 12.3398 7.57549C10.0905 7.57549 8.26072 9.40525 8.26072 11.6546Z" fill="white"/>
</svg>
