<svg width="18" height="18" viewBox="0 0 18 18" fill="none" xmlns="http://www.w3.org/2000/svg">
<path d="M17.5043 17.5043C16.844 18.1646 15.7737 18.1646 15.1134 17.5043L12.1301 14.5209C10.9035 15.3077 9.45371 15.7765 7.88828 15.7765C3.53202 15.7765 0 12.245 0 7.88825C0 3.53149 3.53202 0 7.88828 0C12.2451 0 15.7766 3.53142 15.7766 7.88825C15.7766 9.45315 15.3072 10.9035 14.5209 12.1306L17.5043 15.114C18.1646 15.7743 18.1646 16.844 17.5043 17.5043ZM7.88828 2.25377C4.77665 2.25377 2.2538 4.77605 2.2538 7.88821C2.2538 11.0004 4.77669 13.5227 7.88828 13.5227C11.0004 13.5227 13.5227 11.0004 13.5227 7.88821C13.5227 4.77605 11.0004 2.25377 7.88828 2.25377Z" fill="#919191"/>
</svg>
