<svg width="13" height="8" viewBox="0 0 13 8" fill="none" xmlns="http://www.w3.org/2000/svg">
<path d="M1.73715 0.324275C1.36396 -0.0828437 0.731394 -0.110347 0.324275 0.262846C-0.0828437 0.636038 -0.110347 1.26861 0.262846 1.67572L1.73715 0.324275ZM6.5 7L5.76285 7.67572C5.95226 7.88235 6.21969 8 6.5 8C6.78031 8 7.04774 7.88235 7.23715 7.67572L6.5 7ZM12.7372 1.67572C13.1103 1.26861 13.0828 0.636038 12.6757 0.262846C12.2686 -0.110347 11.636 -0.0828437 11.2628 0.324275L12.7372 1.67572ZM0.262846 1.67572L5.76285 7.67572L7.23715 6.32428L1.73715 0.324275L0.262846 1.67572ZM7.23715 7.67572L12.7372 1.67572L11.2628 0.324275L5.76285 6.32428L7.23715 7.67572Z" fill="#03A9F4"/>
</svg>
